<?xml version="1.0" encoding="UTF-8"?>
<svg width="11px" height="16px" viewBox="0 0 11 16" version="1.1" xmlns="http://www.w3.org/2000/svg" xmlns:xlink="http://www.w3.org/1999/xlink">
    <title>F9C2FB5F-6FC2-449E-AB08-B58532D88DA4</title>
    <defs>
        <filter color-interpolation-filters="auto" id="filter-1">
            <feColorMatrix in="SourceGraphic" type="matrix" values="0 0 0 0 0.082353 0 0 0 0 0.082353 0 0 0 0 0.086275 0 0 0 0.350000 0"></feColorMatrix>
        </filter>
    </defs>
    <g id="V2-Screens" stroke="none" stroke-width="1" fill="none" fill-rule="evenodd">
        <g id="10-Challenge-Details---Design" transform="translate(-350.000000, -547.000000)">
            <g id="Group" transform="translate(347.000000, 547.000000)">
                <g id="Group" transform="translate(3.000000, 0.000000)" filter="url(#filter-1)">
                    <g>
                        <g id="more-vertical" fill="#000000" fill-rule="nonzero">
                            <path d="M1.77777778,16 C0.795938222,16 0,15.2040618 0,14.2222222 C0,13.2403827 0.795938222,12.4444444 1.77777778,12.4444444 C2.75961733,12.4444444 3.55555556,13.2403827 3.55555556,14.2222222 C3.55555556,15.2040618 2.75961733,16 1.77777778,16 Z M1.77777778,9.77777778 C0.795938222,9.77777778 0,8.98183956 0,8 C0,7.01816044 0.795938222,6.22222222 1.77777778,6.22222222 C2.75961733,6.22222222 3.55555556,7.01816044 3.55555556,8 C3.55555556,8.98183956 2.75961733,9.77777778 1.77777778,9.77777778 Z M1.77777778,3.55555556 C0.795938222,3.55555556 0,2.75961733 0,1.77777778 C0,0.795938222 0.795938222,0 1.77777778,0 C2.75961733,0 3.55555556,0.795938222 3.55555556,1.77777778 C3.55555556,2.75961733 2.75961733,3.55555556 1.77777778,3.55555556 Z" id="Shape"></path>
                        </g>
                        <g id="more-vertical-copy" transform="translate(7.000000, 0.000000)" fill="#000000" fill-rule="nonzero">
                            <path d="M1.77777778,16 C0.795938222,16 0,15.2040618 0,14.2222222 C0,13.2403827 0.795938222,12.4444444 1.77777778,12.4444444 C2.75961733,12.4444444 3.55555556,13.2403827 3.55555556,14.2222222 C3.55555556,15.2040618 2.75961733,16 1.77777778,16 Z M1.77777778,9.77777778 C0.795938222,9.77777778 0,8.98183956 0,8 C0,7.01816044 0.795938222,6.22222222 1.77777778,6.22222222 C2.75961733,6.22222222 3.55555556,7.01816044 3.55555556,8 C3.55555556,8.98183956 2.75961733,9.77777778 1.77777778,9.77777778 Z M1.77777778,3.55555556 C0.795938222,3.55555556 0,2.75961733 0,1.77777778 C0,0.795938222 0.795938222,0 1.77777778,0 C2.75961733,0 3.55555556,0.795938222 3.55555556,1.77777778 C3.55555556,2.75961733 2.75961733,3.55555556 1.77777778,3.55555556 Z" id="Shape"></path>
                        </g>
                    </g>
                </g>
            </g>
        </g>
    </g>
</svg>